<?xml version="1.0" standalone="no"?>
<!DOCTYPE svg PUBLIC "-//W3C//DTD SVG 20010904//EN"
 "http://www.w3.org/TR/2001/REC-SVG-20010904/DTD/svg10.dtd">
<svg version="1.0" xmlns="http://www.w3.org/2000/svg"
 width="840.000000pt" height="593.000000pt" viewBox="0 0 840.000000 593.000000"
 preserveAspectRatio="xMidYMid meet">

<g transform="translate(0.000000,593.000000) scale(0.100000,-0.100000)"
fill="#000000" stroke="none">
<path d="M4167 5408 c-274 -273 -476 -598 -546 -878 -36 -145 -36 -141 14
-178 92 -70 172 -151 290 -293 29 -35 145 -219 145 -230 0 -5 5 -9 10 -9 6 0
10 -5 10 -11 0 -5 19 -47 41 -92 23 -45 47 -98 54 -117 9 -24 14 -29 15 -15 8
185 50 777 55 785 15 24 23 -5 29 -98 4 -53 9 -128 11 -167 3 -38 10 -149 17
-245 6 -96 10 -298 9 -447 -1 -150 0 -273 3 -273 10 0 122 93 184 154 57 54
186 209 220 261 6 11 24 45 40 75 15 30 30 57 34 60 33 25 122 301 133 410 3
36 8 83 10 105 10 107 -30 340 -83 480 -34 91 -139 295 -162 315 -3 3 -21 29
-39 58 -18 28 -37 52 -42 52 -5 0 -9 4 -9 10 0 11 -12 26 -96 124 -78 90 -135
150 -201 210 l-52 48 -94 -94z"/>
<path d="M2425 4425 c-163 -20 -446 -83 -468 -104 -13 -13 80 -363 102 -381 3
-3 7 -12 9 -20 17 -83 159 -362 236 -465 65 -87 161 -196 192 -220 l34 -26 60
30 c79 40 228 87 337 107 98 19 471 27 512 12 13 -5 25 -7 28 -5 2 2 -92 68
-209 146 -242 161 -216 143 -291 199 -53 40 -70 62 -47 62 6 0 68 -30 138 -66
179 -93 613 -315 762 -390 109 -55 263 -124 278 -124 15 0 -82 292 -99 298 -5
2 -7 7 -4 12 13 22 -159 338 -252 460 -72 96 -207 225 -288 275 -96 60 -140
83 -147 79 -4 -3 -8 -1 -8 3 0 30 -257 103 -430 123 -81 9 -356 6 -445 -5z"/>
<path d="M5527 4260 c-93 -11 -253 -50 -318 -78 l-46 -20 -7 -79 c-8 -81 -21
-160 -36 -203 -4 -14 -16 -52 -25 -85 -10 -33 -42 -111 -71 -172 -30 -62 -54
-116 -53 -119 0 -4 -3 -10 -8 -13 -5 -3 -28 -34 -51 -68 -23 -34 -46 -65 -52
-68 -22 -13 -9 -24 17 -14 37 14 94 39 115 50 10 5 23 9 30 9 7 0 69 23 138
51 307 126 407 162 415 149 6 -10 -35 -38 -147 -98 -43 -23 -113 -61 -155 -84
-43 -23 -116 -62 -163 -88 -104 -57 -210 -115 -310 -168 -258 -137 -377 -210
-363 -222 20 -17 199 -68 348 -100 103 -23 273 -40 384 -40 478 2 824 193
1113 615 99 145 206 361 274 555 29 84 31 96 18 107 -51 39 -400 139 -579 167
-126 19 -366 28 -468 16z"/>
<path d="M3015 3145 c-138 -21 -225 -47 -345 -103 -137 -64 -305 -192 -402
-305 -29 -34 -61 -71 -70 -81 -10 -11 -30 -38 -45 -60 -15 -23 -31 -43 -34
-46 -3 -3 -31 -45 -62 -94 -70 -110 -176 -324 -216 -433 l-30 -82 107 -45
c198 -83 404 -141 613 -171 108 -15 313 -19 403 -7 l50 7 18 101 c9 55 31 141
49 190 17 49 33 99 36 112 3 12 9 22 13 22 4 0 15 19 25 43 23 57 95 177 161
264 63 84 78 85 -176 -7 -63 -23 -128 -46 -145 -50 -16 -4 -43 -13 -58 -19
-16 -6 -38 -11 -49 -11 -43 0 6 31 206 128 110 55 259 128 331 163 84 42 145
79 175 108 53 51 227 192 282 228 21 14 38 29 38 32 0 4 -17 12 -37 18 -151
43 -239 65 -313 77 -47 8 -101 18 -120 21 -65 12 -325 12 -405 0z"/>
<path d="M3904 2772 c-140 -107 -146 -113 -269 -237 -138 -137 -227 -257 -304
-405 -93 -181 -141 -364 -141 -544 0 -145 48 -391 101 -522 7 -16 14 -38 16
-49 12 -66 218 -436 302 -546 19 -24 36 -45 37 -47 2 -4 135 77 144 88 3 3 32
25 65 49 344 253 586 568 676 880 20 71 22 67 -37 136 -157 187 -284 469 -352
777 l-28 127 -67 -267 c-37 -147 -90 -357 -118 -467 -46 -181 -68 -242 -81
-218 -3 4 3 69 12 143 27 209 71 552 75 585 3 17 16 122 30 235 14 113 30 238
36 278 6 41 9 75 7 77 -2 2 -49 -31 -104 -73z"/>
<path d="M4302 2738 c4 -151 44 -362 106 -553 93 -291 247 -521 451 -676 62
-46 285 -164 327 -172 10 -2 26 -7 34 -10 106 -40 292 -79 459 -96 112 -12
366 -13 446 -3 l50 7 -2 115 c-3 151 -30 358 -64 490 -56 215 -129 391 -222
532 -63 95 -181 226 -230 257 l-32 19 -105 -26 c-97 -23 -123 -25 -340 -26
-175 0 -259 4 -330 17 -52 9 -96 14 -99 12 -4 -5 274 -292 333 -344 17 -14 35
-32 40 -40 6 -8 59 -64 119 -126 96 -100 122 -135 100 -135 -5 0 -73 52 -153
115 -80 64 -152 121 -160 128 -8 7 -38 31 -67 55 -28 23 -54 42 -58 42 -4 0
-14 8 -23 19 -10 10 -121 102 -249 204 -172 138 -243 189 -275 197 -24 7 -46
14 -50 16 -4 3 -7 -6 -6 -18z"/>
</g>
</svg>
