<?xml version="1.0" standalone="no"?>
<!DOCTYPE svg PUBLIC "-//W3C//DTD SVG 20010904//EN"
 "http://www.w3.org/TR/2001/REC-SVG-20010904/DTD/svg10.dtd">
<svg version="1.0" xmlns="http://www.w3.org/2000/svg"
 width="300.000000pt" height="300.000000pt" viewBox="0 0 300.000000 300.000000"
 preserveAspectRatio="xMidYMid meet">

<g transform="translate(0.000000,300.000000) scale(0.100000,-0.100000)"
fill="#000000" stroke="none">
<path d="M1350 2959 c-660 -74 -1179 -559 -1296 -1212 -24 -137 -22 -381 5
-520 74 -371 274 -688 576 -914 571 -427 1402 -359 1915 158 199 200 315 409
388 699 24 97 26 122 27 315 0 168 -4 227 -19 295 -130 597 -563 1039 -1139
1160 -110 24 -336 33 -457 19z m420 -133 c595 -129 1027 -615 1079 -1213 53
-605 -318 -1180 -895 -1386 -151 -54 -264 -72 -454 -72 -186 0 -268 12 -418
61 -335 110 -629 366 -790 689 -98 197 -135 360 -136 590 0 173 14 270 61 418
106 336 363 633 688 795 135 67 304 118 455 136 76 9 337 -2 410 -18z"/>
<path d="M1345 2715 c-5 -2 -31 -6 -57 -10 l-48 -6 0 -490 0 -489 265 0 265 0
0 489 0 489 -75 11 c-68 10 -325 14 -350 6z"/>
<path d="M634 2363 c-178 -177 -296 -404 -339 -651 -20 -111 -19 -327 0 -433
47 -253 167 -480 349 -659 l66 -64 0 937 c0 515 -2 937 -4 937 -2 0 -34 -30
-72 -67z"/>
<path d="M2290 1494 l0 -937 33 25 c42 33 155 164 204 236 207 311 259 718
137 1080 -32 97 -104 236 -162 315 -48 66 -190 217 -204 217 -4 0 -8 -421 -8
-936z"/>
<path d="M1235 765 c0 -405 2 -466 15 -470 108 -31 401 -31 503 1 16 5 17 36
17 470 l0 464 -267 0 -268 0 0 -465z"/>
</g>
</svg>
